<svg width="20" height="24" viewBox="0 0 20 24" fill="none" xmlns="http://www.w3.org/2000/svg">
<path d="M9.49839 2.09087C9.49482 2.09444 9.42577 2.10278 9.34364 2.10992C9.26269 2.11706 9.16626 2.12659 9.13055 2.13254C9.09484 2.13849 9.01389 2.15039 8.95199 2.15754C8.89009 2.16587 8.80676 2.17896 8.76747 2.18849C8.72819 2.19682 8.67581 2.20515 8.65081 2.20515C8.627 2.20515 8.59724 2.20992 8.58534 2.21587C8.57463 2.22182 8.51987 2.23849 8.46392 2.25396C8.40797 2.26825 8.3413 2.28729 8.31511 2.29682C8.28893 2.30753 8.21988 2.33015 8.16036 2.348C8.00084 2.39919 7.93537 2.42181 7.9199 2.43371C7.91275 2.43967 7.86395 2.46466 7.81157 2.48966C7.76038 2.51585 7.69372 2.55037 7.66515 2.56942C7.63658 2.58847 7.59848 2.61109 7.58063 2.6218C7.56396 2.63132 7.51158 2.66585 7.46516 2.6968C7.38183 2.75394 7.3604 2.78132 7.40206 2.77536C7.44016 2.76941 7.58896 2.79084 7.62467 2.80631C7.66991 2.82774 7.77109 2.86226 7.85918 2.88964C7.91632 2.90631 8.0437 2.91702 8.20322 2.9194C8.25678 2.9194 8.25321 2.95035 8.19726 2.98369C8.11989 3.02892 8.00322 3.03845 7.55325 3.03607C7.19493 3.03487 7.14493 3.03607 7.11279 3.05392C7.09375 3.06464 7.0628 3.07416 7.04613 3.07416C7.00446 3.07416 6.89495 3.11225 6.8259 3.15273C6.79376 3.17058 6.75686 3.19082 6.74376 3.19796C6.59258 3.28248 6.37592 3.46819 6.28307 3.59318C6.26164 3.62294 6.21879 3.6777 6.18784 3.7146C6.15689 3.75151 6.1307 3.78722 6.1307 3.79317C6.1307 3.79912 6.12237 3.81222 6.11284 3.82293C6.09618 3.84079 5.96404 4.03602 5.96404 4.04316C5.96404 4.04554 5.93428 4.09673 5.89738 4.15625C5.86166 4.21696 5.83428 4.26934 5.83667 4.27291C5.84024 4.27529 5.87357 4.27291 5.91285 4.26577C6.11403 4.23124 6.18903 4.22767 6.49378 4.23839C6.84495 4.25148 7.02113 4.24672 7.0866 4.22172C7.13541 4.20387 7.26159 4.1991 7.26159 4.21577C7.26159 4.24315 6.96637 4.41933 6.91994 4.41933C6.90923 4.41933 6.89137 4.42766 6.88185 4.43719C6.87114 4.44671 6.84376 4.45623 6.82114 4.4598C6.79852 4.46338 6.75805 4.47171 6.73186 4.47766C6.6652 4.49433 6.39021 4.52409 6.22593 4.53242C6.01404 4.54432 5.96166 4.54909 5.91642 4.56218C5.89381 4.56813 5.85571 4.57409 5.83309 4.57409C5.80929 4.57409 5.78072 4.58123 5.76762 4.59075C5.75453 4.59908 5.72834 4.6098 5.71048 4.61456C5.62001 4.63599 5.50692 4.74193 5.45097 4.8574C5.42954 4.90145 5.40811 4.94669 5.40216 4.95859C5.38788 4.98835 5.34859 5.11811 5.33907 5.16929C5.3355 5.19191 5.3236 5.23477 5.31526 5.26453C5.30574 5.29429 5.28431 5.38357 5.26765 5.46333C5.25098 5.54308 5.23193 5.62284 5.22598 5.63951C5.21884 5.65736 5.21408 5.6907 5.21408 5.71569C5.21408 5.74069 5.20574 5.78474 5.19622 5.81212C5.1867 5.8395 5.17836 5.87878 5.17836 5.89902C5.17836 5.93235 5.18075 5.93354 5.21646 5.9264C5.23669 5.92283 5.27479 5.90854 5.30217 5.89545C5.35574 5.86926 5.54858 5.81926 5.69024 5.79426C5.73905 5.78474 5.8069 5.77164 5.83905 5.7645C5.87238 5.75855 5.92833 5.74665 5.96404 5.74069C6.12356 5.7145 6.44854 5.60141 6.50092 5.55499C6.51044 5.54546 6.52473 5.53832 6.53187 5.53832C6.53782 5.53832 6.5533 5.52761 6.56639 5.51332C6.59734 5.4788 6.62591 5.46571 6.64734 5.47404C6.67115 5.48356 6.67234 5.51928 6.64972 5.53713C6.64139 5.54427 6.63067 5.5657 6.6271 5.58475C6.61758 5.62879 6.46997 5.78593 6.4033 5.82283C6.25926 5.9014 6.17593 5.94068 6.13427 5.94902C6.10927 5.95378 6.08427 5.96211 6.07713 5.96687C6.05808 5.98235 5.92833 6.02401 5.87 6.03235C5.84143 6.03711 5.79976 6.04901 5.77833 6.05735C5.75691 6.06687 5.72477 6.07401 5.70691 6.07401C5.68072 6.07401 5.56525 6.11687 5.44621 6.17043C5.29979 6.23591 5.1367 6.36447 5.09742 6.44661C5.00932 6.62994 4.99742 6.69422 4.99861 6.98349C4.99861 7.243 5.02123 7.62274 5.04266 7.72631C5.04861 7.75845 5.06408 7.7525 5.14265 7.68107C5.17241 7.65489 5.21051 7.62632 5.22955 7.61917C5.24741 7.61084 5.26169 7.60013 5.26169 7.59655C5.26169 7.57751 5.42835 7.47751 5.64025 7.37157C5.70691 7.33704 5.7831 7.29419 5.80929 7.27514C5.83547 7.2561 5.85928 7.24062 5.86166 7.24062C5.86524 7.24062 5.89023 7.22514 5.9188 7.2061C5.98666 7.15967 6.07237 7.07158 6.12832 6.99063C6.18784 6.90492 6.20688 6.90492 6.21165 6.99301C6.21403 7.05015 6.20808 7.07753 6.16998 7.16562C6.14498 7.22276 6.11046 7.28586 6.0926 7.3049C6.07356 7.32514 6.05927 7.34538 6.05927 7.35133C6.05927 7.38466 5.74976 7.63108 5.61644 7.70488C5.49978 7.76917 5.25931 7.96201 5.22122 8.02153C5.20932 8.04058 5.1867 8.06915 5.17122 8.08582C5.15575 8.10248 5.12956 8.15724 5.11289 8.20843C5.08789 8.28462 5.08313 8.32271 5.08432 8.42866C5.08432 8.49889 5.08908 8.57984 5.09504 8.6096C5.0998 8.63936 5.11051 8.69769 5.11884 8.73936C5.13075 8.81197 5.15575 8.90244 5.22122 9.11553C5.23669 9.16791 5.26169 9.25362 5.27479 9.30599C5.28907 9.35837 5.30574 9.41194 5.31169 9.42385C5.3236 9.44646 5.32479 9.44646 5.3355 9.42385C5.35693 9.38337 5.54382 9.20719 5.61525 9.16076C5.65334 9.13576 5.72358 9.08577 5.77 9.05005C5.81762 9.01434 5.88547 8.96434 5.9188 8.94054C6.01166 8.87506 6.17831 8.70364 6.17831 8.67507C6.17831 8.67031 6.19736 8.6346 6.22236 8.59412C6.26164 8.52865 6.26641 8.52508 6.28188 8.54413C6.29021 8.55722 6.29736 8.58698 6.29736 8.61317C6.29736 8.68698 6.25093 8.84887 6.21284 8.90482C6.19379 8.93339 6.17831 8.96077 6.17831 8.96673C6.17831 9.00006 5.99975 9.18695 5.86881 9.28933C5.83309 9.31671 5.80214 9.34409 5.79976 9.35004C5.79738 9.3548 5.79024 9.35956 5.78429 9.35956C5.77238 9.35956 5.67834 9.45003 5.67834 9.46194C5.67834 9.46551 5.65215 9.50122 5.61882 9.54051C5.52239 9.65598 5.47954 9.74288 5.45692 9.87144C5.42478 10.0571 5.44502 10.3964 5.50097 10.5905C5.51406 10.6369 5.53073 10.7047 5.53668 10.7404C5.54382 10.7762 5.55335 10.8107 5.55811 10.8178C5.56406 10.8238 5.58311 10.8833 5.60096 10.9488C5.61882 11.0142 5.64025 11.0785 5.64858 11.0916C5.65691 11.1047 5.66763 11.1345 5.67239 11.1571C5.68905 11.2392 5.71762 11.3118 5.73191 11.3118C5.73905 11.3118 5.75453 11.2916 5.76405 11.2666C5.78667 11.213 5.91404 11.05 6.02356 10.9369C6.0688 10.8904 6.12356 10.8297 6.14736 10.8012C6.17117 10.7726 6.20331 10.7393 6.2176 10.7274C6.24617 10.7059 6.4283 10.4536 6.4283 10.4369C6.4283 10.4309 6.43544 10.4178 6.44497 10.4083C6.46759 10.3821 6.5402 10.2357 6.5652 10.1667C6.57591 10.1357 6.59496 10.0976 6.60687 10.0833L6.62829 10.056L6.64258 10.1071C6.66758 10.2036 6.62472 10.3952 6.5402 10.5559C6.49973 10.6345 6.40211 10.7893 6.37711 10.8143C6.36878 10.8226 6.33664 10.8619 6.3045 10.9012C6.22712 10.9988 6.14974 11.0892 6.0688 11.1761C6.0307 11.2154 5.99975 11.2547 5.99975 11.2619C5.99975 11.2702 5.9938 11.2761 5.98666 11.2761C5.97594 11.2761 5.95333 11.3214 5.89857 11.4487C5.87833 11.4964 5.85809 11.6809 5.86285 11.7702C5.87238 11.9606 5.88666 12.0773 5.91285 12.1809C5.92833 12.2428 5.94856 12.3225 5.9569 12.3558C5.96523 12.3904 5.97832 12.4249 5.98428 12.4332C5.99618 12.4487 6.00451 12.4773 6.01761 12.5594C6.02118 12.5808 6.02951 12.6082 6.03546 12.6189C6.04737 12.6404 6.10094 12.7951 6.14379 12.9308C6.15689 12.9737 6.17712 13.0344 6.18903 13.0677C6.25212 13.2427 6.31759 13.4713 6.33426 13.5772C6.34021 13.6165 6.35331 13.6653 6.36402 13.6879C6.38188 13.726 6.38545 13.7272 6.39973 13.7082C6.40807 13.6963 6.4164 13.6808 6.4164 13.6748C6.4164 13.6677 6.42711 13.6415 6.44021 13.6153C6.4533 13.5891 6.46282 13.5594 6.46402 13.5486C6.46402 13.5379 6.47473 13.5153 6.48782 13.4986C6.50092 13.482 6.51163 13.4582 6.51163 13.4451C6.51163 13.4308 6.5283 13.3784 6.54734 13.3272C6.56758 13.2772 6.58306 13.2272 6.58306 13.2165C6.58425 13.207 6.59258 13.1772 6.6021 13.151C6.63305 13.0725 6.689 12.8642 6.73662 12.657C6.75091 12.5951 6.76995 12.5142 6.77829 12.4785C6.78781 12.4427 6.8009 12.3606 6.80805 12.2963C6.82352 12.1618 6.84257 12.0737 6.85804 12.0737C6.8759 12.0737 6.92828 12.1987 6.94137 12.2737C6.9628 12.3856 6.94732 12.8177 6.91637 12.9606C6.90328 13.026 6.88423 13.1201 6.87471 13.1689C6.85923 13.2475 6.82947 13.3617 6.75567 13.6272C6.74495 13.6665 6.73067 13.7034 6.72472 13.7093C6.71876 13.7165 6.714 13.7296 6.714 13.7391C6.714 13.7498 6.70686 13.7724 6.69734 13.7903C6.68781 13.8082 6.6771 13.8403 6.67234 13.8617C6.66758 13.8831 6.65686 13.9141 6.64734 13.9308C6.62115 13.982 6.58306 14.076 6.58306 14.0927C6.58306 14.1022 6.5783 14.1093 6.57115 14.1093C6.5652 14.1093 6.55925 14.1165 6.55925 14.1248C6.55925 14.145 6.45211 14.3605 6.43187 14.3807C6.42354 14.3891 6.4164 14.4046 6.4164 14.4141C6.4164 14.4236 6.4033 14.4522 6.38664 14.4784C6.35688 14.526 6.34854 14.5617 6.3664 14.5617C6.37235 14.5617 6.42354 14.5974 6.48187 14.6414C6.53901 14.6867 6.59496 14.7272 6.60567 14.7343C6.63544 14.7533 6.77829 14.8617 6.79138 14.876C6.79852 14.8843 6.81995 14.9021 6.839 14.9176C6.88304 14.951 6.97828 15.0426 7.0378 15.1069C7.09851 15.1724 7.14731 15.2664 7.17708 15.3736C7.20684 15.4783 7.20803 15.5128 7.18422 15.5212C7.17469 15.5259 7.16636 15.5331 7.16636 15.539C7.16636 15.5438 7.1497 15.5735 7.12827 15.6045C7.05208 15.7176 7.0497 15.9342 7.1247 16.0688C7.19255 16.1926 7.34611 16.3033 7.48777 16.3306C7.62229 16.3568 12.509 16.3426 12.6042 16.3152C12.6375 16.3056 12.6661 16.2937 12.6661 16.2878C12.6661 16.283 12.6804 16.2747 12.697 16.2711C12.7435 16.2592 12.8827 16.1104 12.922 16.0307C12.9506 15.9723 12.9577 15.9414 12.9613 15.8521C12.9649 15.7604 12.9613 15.7354 12.9411 15.689C12.9268 15.6593 12.9161 15.6295 12.9161 15.6235C12.9161 15.6188 12.8958 15.5902 12.872 15.5616C12.828 15.5116 12.8268 15.5057 12.828 15.4247C12.8292 15.339 12.8566 15.2224 12.8863 15.1759C12.8947 15.1617 12.9054 15.1331 12.9101 15.1129C12.9149 15.0914 12.9232 15.0712 12.9292 15.0664C12.9351 15.0629 12.9506 15.0402 12.9625 15.0152C12.9756 14.9914 13.0006 14.9521 13.0196 14.9307C13.0685 14.8712 13.3351 14.6093 13.3458 14.6093C13.3506 14.6093 13.3803 14.5926 13.4113 14.5712C13.4422 14.551 13.5101 14.5105 13.5637 14.4831L13.6601 14.4331L13.6684 14.3212C13.6863 14.0665 13.6625 13.6867 13.616 13.4963C13.6101 13.4701 13.5982 13.4165 13.5899 13.3772C13.5815 13.3379 13.5696 13.2951 13.5613 13.282C13.5541 13.2689 13.5339 13.2118 13.516 13.1534C13.4994 13.0963 13.4803 13.0463 13.4744 13.0427C13.4684 13.0391 13.4637 13.0272 13.4637 13.0165C13.4625 12.9963 13.3875 12.8392 13.3351 12.7487C13.3208 12.7249 13.2982 12.6844 13.2839 12.6606C13.2708 12.6368 13.2399 12.5868 13.2161 12.5511C13.1923 12.5142 13.1696 12.4785 13.1661 12.4725C13.1506 12.4416 13.1101 12.3856 13.0744 12.3439C13.053 12.3201 13.0351 12.2963 13.0351 12.2904C13.0351 12.2856 13.0232 12.2689 13.0077 12.2523C12.9935 12.2356 12.9649 12.2011 12.9458 12.1737C12.8435 12.0332 12.5363 11.7118 12.1697 11.3595C11.9852 11.1809 11.7102 10.9238 11.6364 10.8583C11.5959 10.8226 11.5245 10.7595 11.4757 10.7166C11.3376 10.594 11.0007 10.2548 10.9162 10.1512C10.8733 10.0988 10.8269 10.0429 10.8114 10.0262C10.7959 10.0095 10.7698 9.97977 10.7519 9.96072C10.7114 9.91549 10.5924 9.7655 10.5769 9.73812C10.571 9.7274 10.54 9.68217 10.5102 9.63693C10.4793 9.59289 10.446 9.53932 10.4341 9.52027C10.4233 9.50003 10.3995 9.45718 10.3805 9.42504C10.3436 9.36194 10.3067 9.28814 10.2734 9.21076C10.2614 9.18457 10.2353 9.12505 10.215 9.07981C10.171 8.98101 10.1484 8.90601 10.0876 8.64174C10.0757 8.59174 10.1055 8.60127 10.1591 8.66674C10.2353 8.75721 10.3924 8.9072 10.4912 8.98458C10.5412 9.02387 10.5829 9.05958 10.5829 9.06434C10.5829 9.07029 10.59 9.07386 10.5995 9.07386C10.6079 9.07386 10.6221 9.08101 10.6293 9.09053C10.6376 9.10005 10.6567 9.11077 10.6721 9.11434C10.6876 9.11791 10.7245 9.13815 10.7543 9.15719C10.7828 9.17743 10.8114 9.1929 10.8174 9.1929C10.8221 9.1929 10.8507 9.206 10.8805 9.22147C10.9852 9.27623 11.1424 9.32147 11.2614 9.32861C11.4031 9.33814 11.59 9.36671 11.684 9.39289C11.8399 9.43575 11.9316 9.48575 12.0268 9.58217C12.1542 9.70836 12.1864 9.75121 12.234 9.85002C12.2483 9.88216 12.2661 9.90716 12.2733 9.90716C12.2792 9.90716 12.2852 9.91549 12.2852 9.9262C12.2852 9.9512 12.3411 10.0691 12.3816 10.1274C12.3994 10.1536 12.428 10.1976 12.4447 10.225C12.4661 10.2595 12.4935 10.2833 12.5399 10.3059L12.6042 10.3381L12.7399 10.3214C12.9351 10.2988 13.2173 10.3119 13.2839 10.3476C13.2946 10.3536 13.378 10.3726 13.4696 10.3905C13.5613 10.4071 13.641 10.4262 13.6482 10.4321C13.6541 10.4381 13.7113 10.4428 13.7744 10.4428H13.891L13.9517 10.3738C14.0148 10.3036 14.047 10.2559 14.0994 10.1512C14.1327 10.0833 14.1946 9.9512 14.1958 9.94287C14.1993 9.92382 14.2172 9.87263 14.2315 9.84168C14.2458 9.81073 14.3041 9.66907 14.3505 9.55598C14.3589 9.53574 14.3767 9.48813 14.3922 9.44884C14.4065 9.40956 14.4291 9.35123 14.441 9.31909C14.4541 9.28695 14.4636 9.25124 14.4636 9.23814C14.4636 9.22624 14.472 9.19886 14.4827 9.17743C14.4981 9.14886 14.5029 9.10362 14.5041 8.99053C14.5053 8.85959 14.5029 8.83578 14.4815 8.80602C14.4684 8.78578 14.4565 8.76435 14.4565 8.7584C14.4553 8.75126 14.4541 8.74055 14.4529 8.7334C14.4517 8.72031 14.4422 8.7084 14.3565 8.6096C14.3303 8.57984 14.2898 8.53031 14.2482 8.47865C14.2128 8.43486 14.1743 8.38461 14.1589 8.36556C14.1434 8.34533 14.1065 8.29057 14.1065 8.29057C14.1065 8.29057 14.0832 8.26861 14.0708 8.25247C14.0659 8.24614 14.0589 8.23581 14.0589 8.23581C14.0589 8.23581 14.0291 8.18343 13.9934 8.13819C13.9577 8.09296 13.9196 8.03939 13.9101 8.01915C13.9006 7.99892 13.8744 7.95487 13.8506 7.92154C13.8279 7.88702 13.7958 7.83226 13.7803 7.79774C13.7648 7.76321 13.7398 7.72155 13.7268 7.70607C13.7125 7.6906 13.7018 7.67036 13.7018 7.66084C13.7018 7.65131 13.6827 7.60489 13.6601 7.55727C13.6375 7.50965 13.6184 7.46442 13.6184 7.45609C13.6184 7.44894 13.6137 7.44299 13.6065 7.44299C13.6006 7.44299 13.5946 7.43347 13.5946 7.42156C13.5946 7.40966 13.5732 7.35847 13.547 7.30728C13.5208 7.2561 13.4994 7.20729 13.4994 7.19896C13.4994 7.19062 13.491 7.17753 13.4815 7.16919C13.472 7.16086 13.4637 7.14777 13.4637 7.13824C13.4637 7.12396 13.4494 7.09063 13.3542 6.88707C13.3363 6.8454 13.3172 6.7954 13.3125 6.77398C13.3089 6.75255 13.2958 6.71326 13.2839 6.68708C13.272 6.66089 13.2565 6.61089 13.2494 6.57518C13.2434 6.53946 13.2327 6.50494 13.2256 6.49661C13.2053 6.4728 13.1934 6.33352 13.203 6.24662C13.2399 5.93949 13.2303 5.85497 13.1304 5.57404C13.122 5.55142 13.103 5.50499 13.0887 5.47285C13.0732 5.43952 13.0577 5.40023 13.053 5.38357C13.0482 5.3669 13.0161 5.29429 12.9816 5.22286C12.947 5.15025 12.9149 5.08001 12.9101 5.06454C12.9066 5.05025 12.897 5.03835 12.8911 5.03835C12.8851 5.03835 12.8804 5.03359 12.8804 5.02763C12.8804 5.01454 12.7744 4.79431 12.7328 4.7217C12.7173 4.69432 12.7018 4.66218 12.6982 4.65027C12.6935 4.63718 12.6601 4.5717 12.6232 4.50266C12.5863 4.43362 12.5494 4.36576 12.5423 4.35148C12.5351 4.336 12.5256 4.3241 12.5209 4.3241C12.5149 4.3241 12.5113 4.31695 12.5113 4.30862C12.5113 4.30148 12.4899 4.2622 12.4637 4.22291C12.4375 4.18363 12.4161 4.14553 12.4161 4.13839C12.4161 4.13125 12.4268 4.11101 12.4411 4.09316C12.4709 4.05506 12.6482 3.90388 12.7244 3.8515C12.7542 3.83007 12.7851 3.80865 12.7923 3.80388C12.8149 3.78603 12.8506 3.76579 12.8923 3.74436C12.9149 3.73365 12.953 3.71222 12.9756 3.69913C12.9982 3.68484 13.0304 3.66818 13.047 3.66341C13.0637 3.65865 13.1042 3.6408 13.1363 3.62532C13.1696 3.60866 13.2411 3.58723 13.297 3.5777C13.4161 3.55628 13.4208 3.55628 13.4791 3.56818C13.5113 3.57413 13.5232 3.57294 13.5232 3.56223C13.5232 3.54437 13.2696 3.29201 13.1637 3.20391C13.1232 3.17058 13.0839 3.13725 13.0768 3.13011C13.0696 3.12178 13.0268 3.08844 12.9827 3.0563C12.9387 3.02297 12.8732 2.97416 12.8375 2.94559C12.7732 2.8956 12.7458 2.87893 12.6185 2.8087C12.5828 2.78965 12.5304 2.75751 12.5018 2.73965C12.4732 2.7206 12.4435 2.70513 12.4351 2.70513C12.428 2.70513 12.4161 2.70037 12.409 2.69322C12.3923 2.67656 12.259 2.6099 12.2423 2.6099C12.2352 2.6099 12.2221 2.60156 12.2137 2.59204C12.2054 2.58252 12.1911 2.57418 12.1816 2.57418C12.1721 2.57418 12.1149 2.55156 12.0554 2.52538C11.9947 2.498 11.9352 2.47181 11.9221 2.46585C11.8685 2.44443 11.5721 2.34919 11.5019 2.33015C11.4602 2.31943 11.4173 2.30634 11.4066 2.30158C11.3947 2.29562 11.3495 2.28253 11.3031 2.27182C11.2578 2.2611 11.1876 2.24325 11.1483 2.23372C11.0257 2.20277 10.64 2.14325 10.3686 2.11468C10.1972 2.09563 9.51148 2.07778 9.49839 2.09087ZM9.23174 2.93845C9.36268 2.97178 9.54958 3.03726 9.64719 3.08368C9.85551 3.18487 9.92218 3.21939 9.94956 3.24082C9.96503 3.25391 9.98289 3.26463 9.98884 3.26463C10.0031 3.26463 10.1543 3.36938 10.2257 3.43009C10.3353 3.52295 10.4995 3.70627 10.4995 3.73484C10.4995 3.73841 10.5079 3.75032 10.5174 3.76103C10.5341 3.77769 10.5341 3.78127 10.5162 3.8015C10.5055 3.8146 10.4876 3.82412 10.4769 3.82412C10.4519 3.82293 10.2936 3.73603 10.2019 3.67175C10.1626 3.64437 10.1257 3.62175 10.121 3.62175C10.1162 3.62175 10.0805 3.59199 10.0412 3.55628C10.0019 3.52056 9.96622 3.4908 9.96265 3.4908C9.95908 3.4908 9.94003 3.47652 9.92099 3.45985C9.90194 3.44319 9.84718 3.40271 9.80076 3.36938C9.75314 3.33605 9.71385 3.3051 9.71385 3.29915C9.71385 3.2932 9.70671 3.28843 9.69957 3.28843C9.69124 3.28843 9.66862 3.27177 9.64957 3.25272C9.63053 3.23248 9.6091 3.21701 9.60196 3.21701C9.596 3.21701 9.56029 3.19677 9.52339 3.17177C9.43292 3.11106 9.41863 3.10273 9.35078 3.0694C9.2615 3.02654 9.20555 3.00273 9.19245 3.00273C9.1865 3.00273 9.16745 2.99202 9.15079 2.97892C9.13412 2.96583 9.10436 2.95155 9.08412 2.94797C9.06389 2.94321 9.04365 2.93488 9.04008 2.93012C9.03651 2.92417 9.02341 2.9194 9.01151 2.9194C8.9996 2.9194 8.98651 2.91464 8.98294 2.90988C8.97222 2.89322 9.12103 2.90988 9.23174 2.93845ZM9.14126 3.17773C9.18888 3.23487 9.27221 3.39438 9.29126 3.46581C9.30078 3.49557 9.31268 3.53604 9.31983 3.55628C9.32697 3.57532 9.34125 3.62413 9.35316 3.66341C9.36387 3.7027 9.38054 3.74198 9.38887 3.75032C9.3972 3.75865 9.40911 3.78365 9.41506 3.80626C9.42935 3.85864 9.47934 3.92412 9.59719 4.04197C9.69005 4.13601 9.71981 4.18601 9.66386 4.15506C9.64838 4.14673 9.6341 4.13601 9.63053 4.13244C9.62695 4.12887 9.61624 4.12292 9.60553 4.11815C9.56743 4.10506 9.4222 3.98602 9.37697 3.93245C9.30435 3.84555 9.24959 3.76579 9.24959 3.74913C9.24959 3.7396 9.23412 3.70984 9.21507 3.68008C9.19602 3.65151 9.17579 3.60628 9.17221 3.58009C9.16745 3.5539 9.15793 3.52652 9.15198 3.51937C9.14722 3.51104 9.12817 3.45747 9.1115 3.40033C9.09484 3.342 9.0746 3.27772 9.06508 3.25867C9.04484 3.21225 9.02341 3.11939 9.03056 3.10749C9.04127 3.09082 9.10317 3.1313 9.14126 3.17773ZM9.08412 6.11687C9.06865 6.199 9.05317 6.34424 9.04603 6.47042C9.03532 6.67279 9.03294 6.68827 9.00437 6.72517C8.9877 6.7466 8.96508 6.76921 8.95437 6.77517C8.89366 6.8085 8.66153 7.06206 8.62343 7.13586C8.61272 7.15729 8.59724 7.18348 8.58891 7.193C8.57939 7.20253 8.54963 7.25848 8.51987 7.318C8.43654 7.48823 8.4163 7.53346 8.4163 7.55132C8.41511 7.56084 8.40559 7.58941 8.39249 7.6156C8.3794 7.64179 8.36987 7.67512 8.36868 7.68941C8.36868 7.70369 8.36392 7.72869 8.35678 7.74655C8.35083 7.76321 8.33892 7.81321 8.33297 7.85607C8.32583 7.90011 8.31392 7.94416 8.30559 7.95368C8.29488 7.96558 8.29131 8.08701 8.29131 8.41199C8.29131 8.82626 8.29369 8.86197 8.31869 8.99053C8.33416 9.06553 8.3544 9.1691 8.36511 9.22028C8.37464 9.27147 8.39011 9.32861 8.39963 9.34528C8.40916 9.36313 8.4163 9.39289 8.4163 9.41313C8.41749 9.43218 8.42582 9.47027 8.43535 9.49646C8.44606 9.52265 8.45796 9.55955 8.46392 9.57979C8.4782 9.63098 8.53772 9.8024 8.55915 9.85359C8.5651 9.86668 8.57701 9.9012 8.58653 9.93096C8.59724 9.96072 8.61867 10.0214 8.63534 10.0667C8.67105 10.1607 8.66986 10.1571 8.65438 10.1571C8.64724 10.1571 8.63772 10.1476 8.63415 10.1357C8.62938 10.125 8.61391 10.0988 8.59962 10.0798C8.57224 10.0429 8.49606 9.91073 8.47344 9.85954C8.4663 9.84287 8.43416 9.77383 8.40082 9.70478C8.36868 9.63574 8.33178 9.55003 8.31869 9.51432C8.27702 9.39766 8.23536 9.29409 8.22583 9.28219C8.22107 9.27504 8.2056 9.22981 8.19012 9.181C8.17584 9.13219 8.15679 9.07505 8.14727 9.05363C8.13774 9.03339 8.1306 9.00839 8.1306 8.99768C8.1306 8.98696 8.11989 8.93935 8.1056 8.89173C8.09251 8.8453 8.07941 8.79292 8.07703 8.77626C8.07465 8.75959 8.06632 8.72745 8.05917 8.70483C8.05322 8.68222 8.04727 8.64174 8.04727 8.61555C8.04727 8.58936 8.03775 8.52746 8.02703 8.47865C7.99965 8.35485 7.99965 7.9632 8.02703 7.83583C8.03775 7.78702 8.04965 7.71679 8.05441 7.68107C8.05917 7.64536 8.06632 7.60965 8.07108 7.6037C8.07584 7.59655 8.08417 7.57037 8.08774 7.54418C8.09965 7.47989 8.17345 7.26086 8.21393 7.17396C8.22583 7.14658 8.24012 7.10848 8.24488 7.09063C8.24964 7.07158 8.26274 7.04301 8.27583 7.02753C8.28773 7.01206 8.29726 6.99539 8.29726 6.98944C8.29726 6.98349 8.32583 6.9323 8.36035 6.87516C8.39368 6.81683 8.43297 6.75017 8.44606 6.72517C8.45915 6.70136 8.47344 6.68112 8.4782 6.68112C8.48296 6.68112 8.49487 6.66684 8.50439 6.64779C8.51391 6.62994 8.53177 6.60494 8.54486 6.59065C8.55796 6.57756 8.57701 6.55018 8.58653 6.53113C8.59724 6.51208 8.62938 6.46685 8.66034 6.43114C8.94127 6.10258 9.08412 5.95259 9.10079 5.96806C9.10793 5.97521 9.10198 6.02997 9.08412 6.11687ZM11.959 6.06211C12.1221 6.08353 12.2316 6.13234 12.4756 6.29067C12.5887 6.36447 12.6709 6.40257 12.7506 6.41804C12.8863 6.44542 12.8851 6.44423 12.8423 6.49304C12.8089 6.52994 12.7387 6.57399 12.7125 6.57399C12.7018 6.57399 12.6768 6.58232 12.6589 6.59184C12.6042 6.62041 12.3923 6.61565 12.303 6.58589C12.1018 6.51685 12.0506 6.46566 12.0173 6.30019C12.0066 6.24424 11.9911 6.19186 11.984 6.18353C11.9768 6.17401 11.9447 6.15377 11.9114 6.1371C11.7983 6.07996 11.7471 6.02758 11.8185 6.04187C11.8376 6.04544 11.9007 6.05496 11.959 6.06211ZM9.36863 8.63222C9.36982 8.64293 9.37935 8.67269 9.39244 8.69888C9.40554 8.72507 9.41506 8.75126 9.41625 8.75602C9.41625 8.76554 9.42577 8.78816 9.50791 8.97268C9.57577 9.12505 9.61981 9.21195 9.646 9.24647C9.65076 9.25243 9.68886 9.31433 9.72933 9.38337C9.771 9.45242 9.81147 9.52146 9.82099 9.53813C9.83052 9.5536 9.8448 9.57265 9.85075 9.58098C9.8579 9.58812 9.88408 9.62503 9.91027 9.66193C9.96503 9.7405 10.0829 9.89882 10.0936 9.90716C10.0972 9.91073 10.121 9.93811 10.146 9.96906C10.1698 10 10.2114 10.0464 10.2376 10.0726C10.2638 10.0988 10.2853 10.1226 10.2853 10.1262C10.2853 10.1321 10.3376 10.1917 10.4591 10.3214C10.5126 10.3786 10.5698 10.4405 10.5864 10.4607C10.6031 10.4797 10.8174 10.6976 11.0614 10.944C11.5161 11.4023 11.7149 11.6106 11.7899 11.7047C11.8138 11.7344 11.8399 11.7666 11.8483 11.7761C11.9435 11.8856 12.1661 12.1939 12.1661 12.2154C12.1661 12.2225 12.1709 12.2285 12.178 12.2285C12.184 12.2285 12.1983 12.2463 12.2078 12.2666C12.2173 12.288 12.2363 12.3213 12.2494 12.3416C12.2625 12.3606 12.2804 12.3916 12.2875 12.4094C12.2959 12.4285 12.3066 12.4427 12.3113 12.4427C12.3161 12.4427 12.3209 12.4487 12.3209 12.4558C12.3209 12.4618 12.3423 12.513 12.3685 12.5689C12.3947 12.6249 12.4161 12.6749 12.4161 12.6808C12.4161 12.6856 12.4292 12.7177 12.4459 12.7499C12.4613 12.782 12.4816 12.8368 12.4887 12.8701C12.4959 12.9046 12.509 12.9475 12.5185 12.9641C12.528 12.982 12.5351 13.0046 12.5351 13.0153C12.5351 13.026 12.5459 13.0772 12.5578 13.1284C12.5709 13.1808 12.5899 13.3129 12.6006 13.4248C12.6209 13.6224 12.6209 13.6296 12.597 13.7582C12.5649 13.9308 12.5411 14.0129 12.5113 14.0439C12.4982 14.0581 12.4875 14.0784 12.4875 14.0891C12.4875 14.0998 12.4816 14.1093 12.4744 14.1093C12.4661 14.1093 12.4542 14.1177 12.4459 14.1284C12.4375 14.1403 12.4078 14.151 12.3721 14.1534C12.3185 14.1593 12.309 14.1569 12.2804 14.126C12.2411 14.0843 12.2185 14.0427 12.1935 13.9677C12.1792 13.926 12.1733 13.8272 12.1673 13.5498C12.1625 13.3498 12.1554 13.1808 12.1518 13.1749C12.1483 13.1677 12.1387 13.1201 12.1316 13.0677C12.1185 12.9713 12.0947 12.8856 12.0637 12.8153C12.0542 12.7951 12.0471 12.7725 12.0471 12.7642C12.0471 12.757 12.034 12.7225 12.0185 12.6892C12.003 12.6546 11.978 12.5987 11.9637 12.5642C11.9495 12.5308 11.9328 12.5023 11.9268 12.5023C11.9209 12.5023 11.9161 12.4892 11.9161 12.4725C11.9161 12.4558 11.9066 12.4273 11.8935 12.4094C11.8816 12.3916 11.8376 12.3213 11.7971 12.2535C11.7554 12.1856 11.7019 12.1047 11.6757 12.0725C11.6507 12.0404 11.6304 12.0082 11.6304 12.0011C11.6304 11.994 11.6007 11.9511 11.565 11.9082C11.5292 11.8654 11.4816 11.8083 11.4602 11.7833C11.44 11.7583 11.4185 11.7273 11.4138 11.7154C11.409 11.7023 11.4007 11.6928 11.3959 11.6928C11.3912 11.6928 11.3733 11.6725 11.3566 11.6475C11.34 11.6237 11.2923 11.5654 11.2495 11.5202C11.1555 11.4178 10.9162 11.138 10.9162 11.1297C10.9162 11.1273 10.8733 11.0797 10.8221 11.025C10.6864 10.8809 10.5948 10.7785 10.5412 10.7107C10.515 10.6774 10.4829 10.6405 10.4698 10.6274C10.4567 10.6143 10.4317 10.5845 10.415 10.5619C10.3972 10.5393 10.3674 10.5036 10.3495 10.4833C10.2829 10.4119 10.0984 10.1702 9.99956 10.0262C9.93884 9.9393 9.93884 9.93811 9.89837 9.8893C9.8817 9.86906 9.86861 9.84644 9.86861 9.83811C9.86861 9.83097 9.86385 9.82383 9.85671 9.82383C9.85075 9.82383 9.8448 9.8143 9.8448 9.8024C9.8448 9.7893 9.83409 9.77026 9.8198 9.75716C9.80552 9.74526 9.78052 9.70717 9.76504 9.67502C9.74838 9.64169 9.71981 9.59408 9.70195 9.56789C9.68528 9.5417 9.66148 9.49884 9.64957 9.47265C9.63886 9.44646 9.62457 9.4167 9.61743 9.40718C9.61148 9.39766 9.59719 9.37028 9.58767 9.34766C9.44006 9.02267 9.40316 8.9203 9.36982 8.75245C9.35554 8.68341 9.34244 8.61436 9.33768 8.5977C9.33173 8.56913 9.33173 8.56913 9.34959 8.59055C9.3603 8.60365 9.36863 8.62269 9.36863 8.63222Z" fill="#1E1E1E"/>
<path d="M7.91746 16.7177C7.76389 16.795 7.67342 16.9307 7.66152 17.1034C7.64366 17.3438 7.59009 17.62 7.55795 17.6402C7.552 17.6438 7.54724 17.6569 7.54724 17.6688C7.54724 17.6867 7.48891 17.8188 7.45438 17.8795C7.41748 17.945 7.27463 18.1414 7.22582 18.1926C7.2163 18.2033 7.18892 18.2331 7.16511 18.2593C7.14011 18.2843 7.02702 18.3997 6.91036 18.514C6.79489 18.6283 6.68895 18.7414 6.67466 18.764C6.66157 18.7866 6.64728 18.808 6.64371 18.8116C6.59609 18.8545 6.558 18.9925 6.55086 19.1449C6.5461 19.2413 6.54729 19.2461 6.60085 19.283C6.62704 19.3021 6.64371 19.3056 6.66395 19.2985C6.70918 19.2818 13.3469 19.2842 13.3577 19.3009C13.3636 19.3104 13.3684 19.3104 13.3755 19.2973C13.3815 19.289 13.3993 19.2759 13.4148 19.2687C13.4529 19.2521 13.4922 19.1068 13.4815 19.0199C13.4624 18.864 13.4481 18.8449 13.0767 18.4688C12.9458 18.3366 12.8363 18.2188 12.8339 18.2081C12.8315 18.1962 12.8232 18.1819 12.8148 18.1747C12.791 18.1545 12.6672 17.9938 12.6398 17.9462C12.6256 17.9212 12.6101 17.8986 12.6053 17.895C12.6017 17.8914 12.5863 17.8628 12.572 17.8319C12.5577 17.8009 12.5387 17.7724 12.5303 17.7688C12.5208 17.7652 12.5101 17.7367 12.5065 17.7033C12.5018 17.6712 12.4934 17.645 12.4875 17.645C12.4779 17.645 12.4672 17.6176 12.4375 17.5081C12.4303 17.4819 12.4172 17.4367 12.4065 17.4069C12.397 17.3748 12.3875 17.2843 12.3839 17.1807C12.3791 17.0188 12.3756 17.0034 12.3434 16.9355C12.297 16.8427 12.222 16.7653 12.1351 16.7212L12.0649 16.6867L10.0281 16.6831L7.99245 16.6808L7.91746 16.7177ZM11.8923 16.9605C11.9077 16.9772 11.9268 16.9903 11.9351 16.9903C11.9434 16.9903 11.9554 17.0153 11.9625 17.0462C11.9768 17.1153 11.9625 17.1415 11.8923 17.1867L11.8446 17.2164H11.1363H10.4269L10.3709 17.1736C10.3054 17.1236 10.2947 17.101 10.309 17.0486C10.3209 17.0081 10.3769 16.9486 10.4126 16.9391C10.4245 16.9355 10.7566 16.9331 11.1494 16.9319H11.8649L11.8923 16.9605Z" fill="#1E1E1E"/>
<path d="M6.4354 19.6554C6.43183 19.6614 6.38421 19.6697 6.33064 19.6745C6.27588 19.6793 6.22708 19.6864 6.21993 19.6912C6.21398 19.6947 6.18184 19.7043 6.14851 19.7126C5.81638 19.7888 5.38188 20.0935 5.23189 20.353C5.21284 20.3864 5.1926 20.4161 5.18665 20.4197C5.17118 20.4304 5.10094 20.5959 5.07832 20.6721C5.04975 20.7721 5.02475 20.909 5.02713 20.9601L5.02952 21.0078L10.0031 21.0137C12.7398 21.0173 14.9838 21.0161 14.9897 21.0125C14.9981 21.0066 15.0005 20.9661 14.9969 20.8994C14.9862 20.7292 14.8945 20.4816 14.7814 20.3233C14.6862 20.1888 14.4386 19.9685 14.2826 19.8804C14.2029 19.8352 14.041 19.7638 14.0195 19.7638C14.0136 19.7638 13.9922 19.7566 13.9719 19.7471C13.916 19.7221 13.8065 19.6923 13.716 19.6793C13.6719 19.6733 13.6065 19.6626 13.5708 19.6566C13.4827 19.6435 6.44373 19.6412 6.4354 19.6554ZM13.7077 19.8947C13.76 19.9209 13.7934 19.9531 13.8088 19.9911C13.8291 20.0388 13.7969 20.0876 13.7243 20.1209L13.6672 20.1483L12.747 20.1495C11.7875 20.1519 11.7161 20.1483 11.6649 20.1019C11.6506 20.0888 11.6328 20.0661 11.6244 20.0495C11.5935 19.9888 11.6506 19.9173 11.7554 19.8864C11.7899 19.8769 12.0554 19.8733 12.7375 19.8745C13.541 19.8769 13.6767 19.8792 13.7077 19.8947Z" fill="#1E1E1E"/>
</svg>
